<svg xmlns="http://www.w3.org/2000/svg" xmlns:xlink="http://www.w3.org/1999/xlink" width="500" zoomAndPan="magnify" viewBox="0 0 375 374.999991" height="500" preserveAspectRatio="xMidYMid meet" version="1.0"><defs><g/></defs><rect x="-37.5" width="450" fill="#ffffff" y="-37.499999" height="449.999989" fill-opacity="1"/><rect x="-37.5" width="450" fill="#ffffff" y="-37.499999" height="449.999989" fill-opacity="1"/><rect x="-37.5" width="450" fill="#000000" y="-37.499999" height="449.999989" fill-opacity="1"/><g fill="#ffffff" fill-opacity="1"><g transform="translate(55.304177, 293.083224)"><g><path d="M 242.78125 -78.625 C 237.882812 -53.28125 226.289062 -32.832031 208 -17.28125 C 189.71875 -1.726562 165.3125 6.046875 134.78125 6.046875 C 118.945312 6.046875 104.1875 3.597656 90.5 -1.296875 C 76.820312 -6.191406 64.941406 -13.242188 54.859375 -22.453125 C 44.785156 -31.671875 36.867188 -43.046875 31.109375 -56.578125 C 25.347656 -70.117188 22.46875 -85.53125 22.46875 -102.8125 L 22.46875 -108 C 22.46875 -125.28125 25.347656 -140.832031 31.109375 -154.65625 C 36.867188 -168.476562 44.859375 -180.285156 55.078125 -190.078125 C 65.304688 -199.867188 77.257812 -207.351562 90.9375 -212.53125 C 104.613281 -217.71875 119.226562 -220.3125 134.78125 -220.3125 C 164.738281 -220.3125 189.003906 -212.535156 207.578125 -196.984375 C 226.148438 -181.429688 237.882812 -160.984375 242.78125 -135.640625 L 189.21875 -121.828125 C 187.488281 -134.492188 182.015625 -145.4375 172.796875 -154.65625 C 163.578125 -163.875 150.617188 -168.484375 133.921875 -168.484375 C 126.140625 -168.484375 118.789062 -167.039062 111.875 -164.15625 C 104.96875 -161.28125 98.921875 -157.175781 93.734375 -151.84375 C 88.554688 -146.519531 84.453125 -140.039062 81.421875 -132.40625 C 78.398438 -124.769531 76.890625 -116.203125 76.890625 -106.703125 L 76.890625 -104.109375 C 76.890625 -94.609375 78.398438 -86.1875 81.421875 -78.84375 C 84.453125 -71.5 88.554688 -65.378906 93.734375 -60.484375 C 98.921875 -55.585938 104.96875 -51.914062 111.875 -49.46875 C 118.789062 -47.019531 126.140625 -45.796875 133.921875 -45.796875 C 150.617188 -45.796875 163.359375 -49.96875 172.140625 -58.3125 C 180.929688 -66.664062 186.625 -77.898438 189.21875 -92.015625 Z M 242.78125 -78.625 "/></g></g></g></svg>